HIERARCHY
ROOT Hips
{
	OFFSET 0.000000 0.000000 0.000000
	CHANNELS 6 Xposition Yposition Zposition Zrotation Yrotation Xrotation 
	JOINT LeftUpLeg_virtual
	{
		OFFSET 0.000000 0.000000 0.000000
		CHANNELS 3 Zrotation Yrotation Xrotation
		JOINT LeftUpLeg
		{
			OFFSET 8.479694 -4.795517 -0.379053
			CHANNELS 3 Zrotation Yrotation Xrotation
			JOINT LeftLeg
			{
				OFFSET 0.485052 -32.551468 0.112863
				CHANNELS 3 Zrotation Yrotation Xrotation
				JOINT LeftFoot
				{
					OFFSET 0.438033 -32.635670 -3.012641
					CHANNELS 3 Zrotation Yrotation Xrotation
					JOINT LeftToeBase
					{
						OFFSET 0.970169 -13.225353 11.864223
						CHANNELS 3 Zrotation Yrotation Xrotation
						End Site
						{
							OFFSET 0.000000 0.000000 0.000000
						}
					}
				}
			}
		}
	}
	JOINT RightUpLeg_virtual
	{
		OFFSET 0.000000 0.000000 0.000000
		CHANNELS 3 Zrotation Yrotation Xrotation
		JOINT RightUpLeg
		{
			OFFSET -8.479694 -4.795517 -0.379053
			CHANNELS 3 Zrotation Yrotation Xrotation
			JOINT RightLeg
			{
				OFFSET -0.484100 -32.551483 0.112903
				CHANNELS 3 Zrotation Yrotation Xrotation
				JOINT RightFoot
				{
					OFFSET -0.438985 -32.635651 -3.012681
					CHANNELS 3 Zrotation Yrotation Xrotation
					JOINT RightToeBase
					{
						OFFSET -0.970169 -13.225354 11.864223
						CHANNELS 3 Zrotation Yrotation Xrotation
						End Site
						{
							OFFSET 0.000000 0.000000 0.000000
						}
					}
				}
			}
		}
	}
	JOINT Spine_virtual
	{
		OFFSET 0.000000 0.000000 0.000000
		CHANNELS 3 Zrotation Yrotation Xrotation
		JOINT Spine
		{
			OFFSET 0.000000 7.722015 1.166203
			CHANNELS 3 Zrotation Yrotation Xrotation
			JOINT Spine1
			{
				OFFSET 0.000000 12.024086 0.248766
				CHANNELS 3 Zrotation Yrotation Xrotation
				JOINT Spine2
				{
					OFFSET -0.000000 11.503036 -0.491240
					CHANNELS 3 Zrotation Yrotation Xrotation
					JOINT Neck_virtual
					{
						OFFSET 0.000000 0.000000 0.000000
						CHANNELS 3 Zrotation Yrotation Xrotation
						JOINT Neck
						{
							OFFSET 0.000000 18.430687 -3.123054
							CHANNELS 3 Zrotation Yrotation Xrotation
							JOINT Head
							{
								OFFSET -0.000000 9.051071 1.034021
								CHANNELS 3 Zrotation Yrotation Xrotation
								End Site
								{
									OFFSET 0.000000 0.000000 0.000000
								}
							}
						}
					}
					JOINT LeftShoulder_virtual
					{
						OFFSET 0.000000 0.000000 0.000000
						CHANNELS 3 Zrotation Yrotation Xrotation
						JOINT LeftShoulder
						{
							OFFSET 6.197824 13.665230 -4.064723
							CHANNELS 3 Zrotation Yrotation Xrotation
							JOINT LeftArm
							{
								OFFSET 7.778132 -0.187073 -1.709282
								CHANNELS 3 Zrotation Yrotation Xrotation
								JOINT LeftForeArm
								{
									OFFSET 21.954697 0.000000 -2.041093
									CHANNELS 3 Zrotation Yrotation Xrotation
									JOINT LeftHand
									{
										OFFSET 22.992908 0.000000 -0.870901
										CHANNELS 3 Zrotation Yrotation Xrotation
										End Site
										{
											OFFSET 0.000000 0.000000 0.000000
										}
									}
								}
							}
						}
					}
					JOINT RightShoulder_virtual
					{
						OFFSET 0.000000 0.000000 0.000000
						CHANNELS 3 Zrotation Yrotation Xrotation
						JOINT RightShoulder
						{
							OFFSET -6.197824 13.665230 -4.064723
							CHANNELS 3 Zrotation Yrotation Xrotation
							JOINT RightArm
							{
								OFFSET -7.778132 -0.187073 -1.709282
								CHANNELS 3 Zrotation Yrotation Xrotation
								JOINT RightForeArm
								{
									OFFSET -21.954697 0.000000 -2.041093
									CHANNELS 3 Zrotation Yrotation Xrotation
									JOINT RightHand
									{
										OFFSET -22.992908 0.000000 -0.870901
										CHANNELS 3 Zrotation Yrotation Xrotation
										End Site
										{
											OFFSET 0.000000 0.000000 0.000000
										}
									}
								}
							}
						}
					}
				}
			}
		}
	}
}
MOTION
Frames: 10
Frame Time: 0.033333
4.222521 82.364494 1.948966 179.949175 4.484040 179.992724 -4.426274 0.713322 11.490171 0.454007 2.204154 -23.226965 4.823676 4.447164 24.581835 -6.593256 -7.900086 -6.440967 0.000000 0.000000 0.000000 -0.535777 -0.190780 11.018267 -1.011903 -6.206690 -16.619097 -1.671054 1.216602 23.550503 10.023534 9.007851 -8.202968 0.000000 0.000000 0.000000 3.285932 2.855208 1.474820 -6.735564 0.738196 1.004790 1.019976 -3.480101 3.873714 -0.013145 -0.011720 0.002281 0.851504 -2.521869 4.374386 1.507813 1.224043 -16.146601 0.000000 0.000000 0.000000 2.190405 -1.597280 1.776440 11.029703 5.660489 -3.216117 -20.277631 -1.224245 -37.123342 -6.156958 -12.592430 -9.746281 0.000000 0.000000 0.000000 -1.537198 -0.424845 1.144249 5.910488 -5.746584 -2.691430 20.394588 -9.187758 -56.172401 -1.623147 25.970823 -4.656509 0.000000 0.000000 0.000000 
4.220334 82.370705 1.954941 -179.937345 4.523169 179.979105 -4.369037 0.845158 11.477464 0.411697 2.510992 -23.253714 4.696920 4.476452 24.584769 -6.774042 -8.099161 -6.383050 0.000000 0.000000 0.000000 -0.450594 -0.416026 10.919495 -0.824268 -6.777461 -16.721900 -1.583714 0.906206 24.036358 10.106634 9.198491 -8.995302 0.000000 0.000000 0.000000 3.362525 2.850321 1.501853 -6.683180 0.753188 1.029186 1.072802 -3.464787 3.871929 0.016693 0.005698 0.011082 0.825644 -2.574836 4.352118 1.481196 1.340393 -16.142855 0.000000 0.000000 0.000000 2.175178 -1.570224 1.792479 11.028224 5.690375 -3.437640 -20.230640 -1.236644 -37.109733 -6.193223 -12.517782 -9.626359 0.000000 0.000000 0.000000 -1.582436 -0.413006 1.122351 5.972451 -5.783138 -2.646104 20.448700 -9.303602 -56.418660 -1.708032 25.955289 -4.763779 0.000000 0.000000 0.000000 
4.220128 82.371017 1.968124 179.986276 4.565496 179.978025 -4.396201 0.843786 11.493029 0.369843 2.495740 -23.244363 4.713625 4.484863 24.589325 -6.758072 -8.078827 -6.367453 0.000000 0.000000 0.000000 -0.523769 -0.435823 10.945934 -0.864471 -6.726546 -16.732505 -1.545584 0.882863 24.056001 10.137008 9.200338 -8.978775 0.000000 0.000000 0.000000 3.348099 2.858832 1.568580 -6.693835 0.765539 1.030597 1.057205 -3.467906 3.836411 -0.005750 -0.003726 -0.026018 0.891831 -2.500593 4.390452 1.516467 1.362663 -16.100095 0.000000 0.000000 0.000000 2.238400 -1.619966 1.766315 10.975793 5.597420 -3.201868 -20.251781 -1.159610 -37.025390 -6.144913 -12.495774 -9.656651 0.000000 0.000000 0.000000 -1.495852 -0.419792 1.166931 5.807056 -5.884827 -2.772052 20.941934 -9.547434 -57.049237 -1.720802 25.933818 -4.886539 0.000000 0.000000 0.000000 
4.221302 82.372223 1.984522 -179.967548 4.552794 179.989965 -4.371397 0.797794 11.495906 0.381277 2.541615 -23.264179 4.716861 4.515363 24.611813 -6.752408 -8.083554 -6.368628 0.000000 0.000000 0.000000 -0.472707 -0.666735 10.766764 -0.879449 -6.661779 -16.626788 -1.545045 1.023616 24.051606 10.149071 9.229920 -8.959189 0.000000 0.000000 0.000000 3.392331 2.812147 1.585907 -6.631414 0.759630 1.023975 1.093791 -3.467052 3.831702 0.043039 -0.007549 -0.016936 0.829403 -2.570170 4.311106 1.599911 1.323554 -16.034952 0.000000 0.000000 0.000000 2.179594 -1.569050 1.743453 11.011281 5.598108 -3.204190 -20.132872 -1.205500 -36.986007 -6.110747 -12.393376 -9.632847 0.000000 0.000000 0.000000 -1.571636 -0.394774 1.117210 5.895164 -6.022725 -2.958063 21.312140 -9.777819 -57.784213 -1.640062 25.831895 -4.898145 0.000000 0.000000 0.000000 
4.224860 82.367821 2.018483 -179.982110 4.636722 -179.956866 -4.365383 0.780889 11.481190 0.368930 2.536741 -23.327382 4.724871 4.571277 24.635902 -6.719562 -8.063629 -6.356750 0.000000 0.000000 0.000000 -0.443501 -0.933616 10.851754 -0.932975 -6.474628 -16.798843 -1.519190 1.310534 23.952174 10.173002 9.262127 -8.987415 0.000000 0.000000 0.000000 3.395346 2.820939 1.591579 -6.577748 0.810013 1.025776 1.088093 -3.405101 3.813628 0.040737 0.038629 0.000899 0.830779 -2.554072 4.214902 1.690905 1.335340 -15.948715 0.000000 0.000000 0.000000 2.190605 -1.641477 1.669953 11.050000 5.505086 -3.278527 -20.076400 -1.136728 -36.797801 -6.131979 -12.326320 -9.482503 0.000000 0.000000 0.000000 -1.597442 -0.442200 1.007274 6.034833 -6.132707 -2.743786 21.836069 -9.920225 -58.820100 -1.742585 25.740755 -5.075096 0.000000 0.000000 0.000000 
4.232342 82.374535 2.050007 179.961237 4.599316 -179.970526 -4.409450 0.694806 11.502689 0.370025 2.443750 -23.353160 4.739782 4.560985 24.632976 -6.667066 -8.028436 -6.302587 0.000000 0.000000 0.000000 -0.532860 -0.895369 10.786543 -0.920850 -6.708276 -16.814486 -1.482956 1.123666 24.118371 10.230597 9.285564 -8.914698 0.000000 0.000000 0.000000 3.347497 2.748768 1.685361 -6.542230 0.774141 1.005629 1.045657 -3.431067 3.785871 0.033280 -0.008510 0.000198 0.851663 -2.504862 4.186176 1.761386 1.326054 -15.804645 0.000000 0.000000 0.000000 2.210992 -1.562125 1.639662 11.070460 5.482540 -3.164006 -20.052329 -1.127047 -36.672300 -6.071867 -12.302796 -9.474385 0.000000 0.000000 0.000000 -1.536902 -0.406928 1.042734 5.907428 -6.200251 -2.895512 22.591892 -10.076728 -59.790103 -1.711776 25.754907 -5.195115 0.000000 0.000000 0.000000 
4.236365 82.373344 2.090568 -179.966346 4.737576 179.863989 -4.380988 0.784685 11.571232 0.383435 2.523095 -23.336029 4.744904 4.504117 24.664532 -6.623514 -8.020599 -6.366731 0.000000 0.000000 0.000000 -0.488165 -0.879755 10.883891 -0.894481 -6.759431 -16.778990 -1.453489 1.146163 24.138353 10.277608 9.332713 -8.876498 0.000000 0.000000 0.000000 3.383003 2.773237 1.853097 -6.394638 0.826832 1.094999 1.071724 -3.358040 3.773004 0.049242 0.039273 -0.024346 0.825327 -2.509425 4.093790 1.869210 1.307002 -15.636398 0.000000 0.000000 0.000000 2.166559 -1.583697 1.577753 11.165839 5.350217 -3.211121 -19.995439 -1.052862 -36.503427 -6.036951 -12.244550 -9.236000 0.000000 0.000000 0.000000 -1.608485 -0.413607 0.901905 6.068395 -6.294936 -2.833068 23.174545 -10.247429 -60.803198 -1.660002 25.753039 -5.280750 0.000000 0.000000 0.000000 
4.229999 82.375786 2.131994 179.978449 4.795412 179.883018 -4.437655 0.737098 11.583967 0.396748 2.441740 -23.390751 4.742345 4.559962 24.704101 -6.571112 -8.004226 -6.309039 0.000000 0.000000 0.000000 -0.557805 -0.894031 10.861098 -0.908634 -6.822719 -16.851108 -1.419464 1.104167 24.123668 10.342311 9.375333 -8.825477 0.000000 0.000000 0.000000 3.347601 2.780890 1.897242 -6.284329 0.827470 1.068170 1.035772 -3.328744 3.719318 -0.004773 0.045284 0.026449 0.908232 -2.404537 4.029918 1.961724 1.347947 -15.416488 0.000000 0.000000 0.000000 2.173106 -1.532810 1.529751 11.188658 5.202347 -3.154241 -20.054930 -0.977428 -36.363254 -5.975248 -12.220685 -9.116836 0.000000 0.000000 0.000000 -1.593095 -0.373397 0.845194 6.193341 -6.349671 -2.794607 23.654863 -10.345756 -61.617630 -1.641736 25.819536 -5.474736 0.000000 0.000000 0.000000 
4.219694 82.372108 2.181769 179.985170 4.855368 179.901637 -4.462662 0.726041 11.572416 0.411039 2.449313 -23.468038 4.747703 4.558840 24.775596 -6.506960 -7.990146 -6.309100 0.000000 0.000000 0.000000 -0.578680 -0.927507 10.854718 -0.904573 -6.841454 -16.917434 -1.379426 1.122960 24.131448 10.397886 9.415686 -8.778280 0.000000 0.000000 0.000000 3.290589 2.776776 1.913352 -6.158334 0.793121 1.082060 1.030558 -3.335585 3.709403 0.019883 0.003889 -0.069479 0.876320 -2.395366 4.035628 2.005465 1.253736 -15.222538 0.000000 0.000000 0.000000 2.161205 -1.500285 1.478892 11.223947 5.061155 -3.075532 -20.152347 -0.670001 -36.083784 -5.899132 -12.287475 -8.880687 0.000000 0.000000 0.000000 -1.625680 -0.279718 0.884349 6.316007 -6.312522 -2.683726 24.237862 -10.263742 -62.381969 -1.643466 25.965763 -5.657711 0.000000 0.000000 0.000000 
4.207440 82.370003 2.239470 179.991795 4.973808 179.850752 -4.499560 0.770491 11.578717 0.425849 2.467164 -23.508002 4.751098 4.558844 24.839342 -6.438287 -7.981829 -6.333324 0.000000 0.000000 0.000000 -0.590563 -0.870172 10.875732 -0.900825 -6.886768 -16.939779 -1.343552 1.132890 24.097531 10.454512 9.449155 -8.714737 0.000000 0.000000 0.000000 3.246428 2.789252 1.976749 -6.009832 0.766544 1.127500 1.030228 -3.298584 3.706441 0.030540 0.009668 -0.046758 0.870224 -2.364814 3.976323 1.988008 1.296147 -14.916525 0.000000 0.000000 0.000000 2.142856 -1.443349 1.428678 11.252194 4.861893 -3.019932 -20.349927 -0.392070 -35.835544 -5.772058 -12.405578 -8.567882 0.000000 0.000000 0.000000 -1.606471 -0.307489 0.821707 6.513863 -6.393778 -2.839245 24.698664 -10.165317 -63.017286 -1.450625 26.170720 -5.609830 0.000000 0.000000 0.000000 
